<svg width="171" height="71" viewBox="0 0 171 71" fill="none" xmlns="http://www.w3.org/2000/svg">
<path d="M153.083 8.33335C154.711 8.65096 156.207 9.44712 157.38 10.6199C158.553 11.7927 159.349 13.2888 159.667 14.9167L153.083 8.33335ZM153.083 1.66669C156.465 2.04241 159.619 3.55698 162.027 5.9617C164.435 8.36642 165.953 11.5184 166.333 14.9L153.083 1.66669ZM164.667 28.2V33.2C164.669 33.6642 164.573 34.1236 164.387 34.5489C164.202 34.9742 163.929 35.356 163.587 35.6698C163.245 35.9836 162.841 36.2225 162.401 36.3712C161.962 36.5199 161.496 36.5751 161.033 36.5334C155.905 35.9761 150.978 34.2236 146.65 31.4167C142.623 28.8578 139.209 25.4436 136.65 21.4167C133.833 17.0687 132.08 12.1183 131.533 6.96669C131.492 6.5058 131.546 6.04129 131.694 5.60273C131.842 5.16417 132.079 4.76117 132.391 4.41939C132.703 4.07761 133.083 3.80454 133.506 3.61756C133.93 3.43058 134.387 3.33379 134.85 3.33335H139.85C140.659 3.32539 141.443 3.61182 142.056 4.13924C142.67 4.66666 143.07 5.3991 143.183 6.20002C143.394 7.80013 143.786 9.37123 144.35 10.8834C144.574 11.4799 144.623 12.1282 144.49 12.7515C144.357 13.3748 144.048 13.9469 143.6 14.4L141.483 16.5167C143.856 20.6893 147.311 24.1441 151.483 26.5167L153.6 24.4C154.053 23.9519 154.625 23.6431 155.249 23.5102C155.872 23.3772 156.52 23.4258 157.117 23.65C158.629 24.2143 160.2 24.6056 161.8 24.8167C162.61 24.9309 163.349 25.3387 163.878 25.9625C164.406 26.5863 164.687 27.3826 164.667 28.2Z" stroke="#666666" stroke-width="2" stroke-linecap="round" stroke-linejoin="round"/>
<path d="M84 8.33331V31.6666" stroke="#666666" stroke-width="2" stroke-linecap="round" stroke-linejoin="round"/>
<path d="M72.3333 20H95.6666" stroke="#666666" stroke-width="2" stroke-linecap="round" stroke-linejoin="round"/>
<path d="M35 17C35 28.6667 20 38.6667 20 38.6667C20 38.6667 5 28.6667 5 17C5 13.0218 6.58035 9.20644 9.3934 6.3934C12.2064 3.58035 16.0218 2 20 2C23.9782 2 27.7936 3.58035 30.6066 6.3934C33.4196 9.20644 35 13.0218 35 17Z" stroke="#666666" stroke-width="2" stroke-linecap="round" stroke-linejoin="round"/>
<path d="M20 21.6667C22.7614 21.6667 25 19.4281 25 16.6667C25 13.9053 22.7614 11.6667 20 11.6667C17.2386 11.6667 15 13.9053 15 16.6667C15 19.4281 17.2386 21.6667 20 21.6667Z" stroke="#666666" stroke-width="2" stroke-linecap="round" stroke-linejoin="round"/>
<path d="M2.47461 66.9268H7.19141V68H1.15527V58.0469H2.47461V66.9268ZM8.15527 64.2334C8.15527 63.5088 8.29655 62.8571 8.5791 62.2783C8.86621 61.6995 9.2627 61.2529 9.76855 60.9385C10.279 60.624 10.86 60.4668 11.5117 60.4668C12.5189 60.4668 13.3324 60.8154 13.9521 61.5127C14.5765 62.21 14.8887 63.1374 14.8887 64.2949V64.3838C14.8887 65.1038 14.7497 65.751 14.4717 66.3252C14.1982 66.8949 13.804 67.3392 13.2891 67.6582C12.7786 67.9772 12.1908 68.1367 11.5254 68.1367C10.5228 68.1367 9.70931 67.7881 9.08496 67.0908C8.46517 66.3936 8.15527 65.4707 8.15527 64.3223V64.2334ZM9.42676 64.3838C9.42676 65.2041 9.61589 65.8626 9.99414 66.3594C10.377 66.8561 10.8874 67.1045 11.5254 67.1045C12.168 67.1045 12.6784 66.8538 13.0566 66.3525C13.4349 65.8467 13.624 65.1403 13.624 64.2334C13.624 63.4222 13.4303 62.766 13.043 62.2646C12.6602 61.7588 12.1497 61.5059 11.5117 61.5059C10.8874 61.5059 10.3838 61.7542 10.001 62.251C9.61816 62.7477 9.42676 63.4587 9.42676 64.3838ZM20.0498 61.7383C19.8584 61.7064 19.651 61.6904 19.4277 61.6904C18.5983 61.6904 18.0355 62.0436 17.7393 62.75V68H16.4746V60.6035H17.7051L17.7256 61.458C18.1403 60.7972 18.7282 60.4668 19.4893 60.4668C19.7354 60.4668 19.9222 60.4987 20.0498 60.5625V61.7383ZM24.1514 68.1367C23.1488 68.1367 22.333 67.8086 21.7041 67.1523C21.0752 66.4915 20.7607 65.6097 20.7607 64.5068V64.2744C20.7607 63.5407 20.8997 62.8867 21.1777 62.3125C21.4603 61.7337 21.8522 61.2826 22.3535 60.959C22.8594 60.6309 23.4062 60.4668 23.9941 60.4668C24.9557 60.4668 25.7031 60.7835 26.2363 61.417C26.7695 62.0505 27.0361 62.9574 27.0361 64.1377V64.6641H22.0254C22.0436 65.3932 22.2555 65.9834 22.6611 66.4346C23.0713 66.8812 23.5908 67.1045 24.2197 67.1045C24.6663 67.1045 25.0446 67.0133 25.3545 66.8311C25.6644 66.6488 25.9355 66.4072 26.168 66.1064L26.9404 66.708C26.3206 67.6605 25.391 68.1367 24.1514 68.1367ZM23.9941 61.5059C23.4837 61.5059 23.0553 61.6927 22.709 62.0664C22.3626 62.4355 22.1484 62.9551 22.0664 63.625H25.7715V63.5293C25.735 62.8867 25.5618 62.39 25.252 62.0391C24.9421 61.6836 24.5228 61.5059 23.9941 61.5059ZM29.6953 60.6035L29.7295 61.4238C30.2718 60.7858 31.0033 60.4668 31.9238 60.4668C32.9583 60.4668 33.6624 60.8633 34.0361 61.6562C34.2822 61.3008 34.6012 61.0137 34.9932 60.7949C35.3896 60.5762 35.8568 60.4668 36.3945 60.4668C38.0169 60.4668 38.8418 61.3258 38.8691 63.0439V68H37.6045V63.1191C37.6045 62.5905 37.4837 62.1963 37.2422 61.9365C37.0007 61.6722 36.5951 61.54 36.0254 61.54C35.556 61.54 35.1663 61.6813 34.8564 61.9639C34.5465 62.2419 34.3665 62.6178 34.3164 63.0918V68H33.0449V63.1533C33.0449 62.0778 32.5186 61.54 31.4658 61.54C30.6364 61.54 30.069 61.8932 29.7637 62.5996V68H28.499V60.6035H29.6953Z" fill="#666666"/>
<path d="M134.563 68H133.251V58.0469H134.563V68ZM143.02 64.3838C143.02 65.5094 142.762 66.4163 142.247 67.1045C141.732 67.7926 141.035 68.1367 140.155 68.1367C139.257 68.1367 138.551 67.8519 138.036 67.2822V70.8438H136.771V60.6035H137.927L137.988 61.4238C138.503 60.7858 139.219 60.4668 140.135 60.4668C141.023 60.4668 141.725 60.8018 142.24 61.4717C142.76 62.1416 143.02 63.0736 143.02 64.2676V64.3838ZM141.755 64.2402C141.755 63.4062 141.577 62.7477 141.222 62.2646C140.866 61.7816 140.379 61.54 139.759 61.54C138.993 61.54 138.419 61.8796 138.036 62.5586V66.0928C138.414 66.7673 138.993 67.1045 139.772 67.1045C140.379 67.1045 140.859 66.8652 141.215 66.3867C141.575 65.9036 141.755 65.1882 141.755 64.2402ZM148.939 66.0381C148.939 65.6963 148.81 65.432 148.55 65.2451C148.295 65.0537 147.846 64.8896 147.203 64.7529C146.565 64.6162 146.057 64.4521 145.679 64.2607C145.305 64.0693 145.027 63.8415 144.845 63.5771C144.667 63.3128 144.578 62.9984 144.578 62.6338C144.578 62.0277 144.833 61.515 145.344 61.0957C145.859 60.6764 146.515 60.4668 147.312 60.4668C148.151 60.4668 148.83 60.6833 149.35 61.1162C149.874 61.5492 150.136 62.1029 150.136 62.7773H148.864C148.864 62.431 148.716 62.1325 148.42 61.8818C148.128 61.6312 147.759 61.5059 147.312 61.5059C146.852 61.5059 146.492 61.6061 146.232 61.8066C145.973 62.0072 145.843 62.2692 145.843 62.5928C145.843 62.8981 145.964 63.1283 146.205 63.2832C146.447 63.4382 146.882 63.5863 147.511 63.7275C148.144 63.8688 148.657 64.0374 149.049 64.2334C149.441 64.4294 149.73 64.6663 149.917 64.9443C150.108 65.2178 150.204 65.5527 150.204 65.9492C150.204 66.61 149.94 67.141 149.411 67.542C148.882 67.9385 148.197 68.1367 147.354 68.1367C146.761 68.1367 146.237 68.0319 145.781 67.8223C145.326 67.6126 144.968 67.321 144.708 66.9473C144.453 66.569 144.325 66.1611 144.325 65.7236H145.59C145.613 66.1475 145.781 66.4847 146.096 66.7354C146.415 66.9814 146.834 67.1045 147.354 67.1045C147.832 67.1045 148.215 67.0088 148.502 66.8174C148.794 66.6214 148.939 66.3617 148.939 66.0381ZM156.418 67.2686C155.926 67.8473 155.203 68.1367 154.251 68.1367C153.463 68.1367 152.861 67.9089 152.446 67.4531C152.036 66.9928 151.829 66.3138 151.824 65.416V60.6035H153.089V65.3818C153.089 66.5029 153.545 67.0635 154.456 67.0635C155.422 67.0635 156.065 66.7035 156.384 65.9834V60.6035H157.648V68H156.445L156.418 67.2686ZM160.766 60.6035L160.8 61.4238C161.342 60.7858 162.074 60.4668 162.994 60.4668C164.029 60.4668 164.733 60.8633 165.106 61.6562C165.353 61.3008 165.672 61.0137 166.063 60.7949C166.46 60.5762 166.927 60.4668 167.465 60.4668C169.087 60.4668 169.912 61.3258 169.939 63.0439V68H168.675V63.1191C168.675 62.5905 168.554 62.1963 168.312 61.9365C168.071 61.6722 167.665 61.54 167.096 61.54C166.626 61.54 166.237 61.6813 165.927 61.9639C165.617 62.2419 165.437 62.6178 165.387 63.0918V68H164.115V63.1533C164.115 62.0778 163.589 61.54 162.536 61.54C161.707 61.54 161.139 61.8932 160.834 62.5996V68H159.569V60.6035H160.766Z" fill="#666666"/>
</svg>
