<svg width="40" height="40" viewBox="0 0 40 40" fill="none" xmlns="http://www.w3.org/2000/svg">
<path d="M35 17C35 28.6667 20 38.6667 20 38.6667C20 38.6667 5 28.6667 5 17C5 13.0218 6.58035 9.20644 9.3934 6.3934C12.2064 3.58035 16.0218 2 20 2C23.9782 2 27.7936 3.58035 30.6066 6.3934C33.4196 9.20644 35 13.0218 35 17Z" stroke="#666666" stroke-width="2" stroke-linecap="round" stroke-linejoin="round"/>
<path d="M20 21.6667C22.7614 21.6667 25 19.4281 25 16.6667C25 13.9053 22.7614 11.6667 20 11.6667C17.2386 11.6667 15 13.9053 15 16.6667C15 19.4281 17.2386 21.6667 20 21.6667Z" stroke="#666666" stroke-width="2" stroke-linecap="round" stroke-linejoin="round"/>
</svg>
